HIERARCHY
ROOT Hips
{
     OFFSET 1.88212 96.90440 -13.34250
     CHANNELS 6 Xposition Yposition Zposition Zrotation Xrotation Yrotation
     JOINT Spine
     {
          OFFSET 0.00000 11.89050 0.00000
          CHANNELS 3 Zrotation Xrotation Yrotation
          JOINT Spine1
          {
               OFFSET -0.00000 25.65740 0.12766
               CHANNELS 3 Zrotation Xrotation Yrotation
               JOINT HEad
               {
                    OFFSET 0.00000 8.73416 0.01134
                    CHANNELS 3 Zrotation Xrotation Yrotation
                    End Site
                    {
                         OFFSET -0.29000 12.77420 2.51395
                    }
               }
               JOINT LeftShoulder1
               {
                    OFFSET 8.99000 -0.36225 -0.22000
                    CHANNELS 3 Zrotation Xrotation Yrotation
                    JOINT LeftArm
                    {
                         OFFSET 10.28270 -0.00338 0.32212
                         CHANNELS 3 Zrotation Xrotation Yrotation
                         JOINT LeftForeArm
                         {
                              OFFSET 32.76690 0.09914 -1.42434
                              CHANNELS 3 Zrotation Xrotation Yrotation
                              JOINT LeftHand
                              {
                                   OFFSET 27.56430 0.08536 1.02216
                                   CHANNELS 3 Zrotation Xrotation Yrotation
                                   End Site
                                   {
                                        OFFSET 16.74430 -0.60000 1.50291
                                   }
                              }
                         }
                    }
               }
               JOINT RightShoulder
               {
                    OFFSET -8.99000 -0.36225 -0.22000
                    CHANNELS 3 Zrotation Xrotation Yrotation
                    JOINT RightArm
                    {
                         OFFSET -10.28270 -0.00338 0.32212
                         CHANNELS 3 Zrotation Xrotation Yrotation
                         JOINT RightForeArm
                         {
                              OFFSET -32.89710 0.09914 -1.42434
                              CHANNELS 3 Zrotation Xrotation Yrotation
                              JOINT RightHand
                              {
                                   OFFSET -27.49210 0.08536 1.02216
                                   CHANNELS 3 Zrotation Xrotation Yrotation
                                   End Site
                                   {
                                        OFFSET -16.63120 -0.60000 1.50291
                                   }
                              }
                         }
                    }
               }
          }
     }
     JOINT LeftUpLeg
     {
          OFFSET 8.94580 -8.66707 0.10165
          CHANNELS 3 Zrotation Xrotation Yrotation
          JOINT LeftLeg
          {
               OFFSET 0.00000 -44.42270 1.37270
               CHANNELS 3 Zrotation Xrotation Yrotation
               JOINT LeftFoot
               {
                    OFFSET -0.25355 -42.09240 -1.46059
                    CHANNELS 3 Zrotation Xrotation Yrotation
                    JOINT LeftToes
                    {
                         OFFSET -0.04000 -4.41509 8.49910
                         CHANNELS 3 Zrotation Xrotation Yrotation
                         End Site
                         {
                              OFFSET 0.08000 -0.04745 9.77979
                         }
                    }
               }
          }
     }
     JOINT RightUpLeg
     {
          OFFSET -8.94580 -8.66707 0.10165
          CHANNELS 3 Zrotation Xrotation Yrotation
          JOINT RightLeg
          {
               OFFSET 0.00000 -44.42270 1.37270
               CHANNELS 3 Zrotation Xrotation Yrotation
               JOINT RightFoot
               {
                    OFFSET 0.25355 -42.09240 -1.46059
                    CHANNELS 3 Zrotation Xrotation Yrotation
                    JOINT RightToes
                    {
                         OFFSET 0.04000 -4.41509 8.49910
                         CHANNELS 3 Zrotation Xrotation Yrotation
                         End Site
                         {
                              OFFSET -0.08000 -0.13745 9.77979
                         }
                    }
               }
          }
     }
}
MOTION
Frames: 6
Frame Time: 0.01667
40.83909 83.54662 -124.89597 3.75186 -11.94572 -21.46056 -0.99534 19.24841 7.37114 -0.02083 0.01073 0.01186 -22.54556 9.73432 22.02856 3.77429 7.82518 -1.59871 -111.50421 -20.93865 -88.78931 -44.86484 38.56244 -79.57520 29.51936 -4.86810 -53.28555 8.14098 8.57812 14.29211 58.09804 16.41156 88.72050 45.69884 12.86787 76.93046 -17.22664 7.23103 35.88424 14.69757 -21.00887 14.78270 -7.45749 38.64960 8.12121 -5.18926 0.02770 -0.08987 -6.24920 19.40807 13.13982 -26.28527 4.42561 19.99302 41.55441 33.51587 -85.90668 26.42937 0.06325 0.25916 -2.75147 -8.33325 23.84054 
40.47840 79.85667 -126.77000 3.77168 -15.57000 -23.61529 0.64450 22.94421 6.40980 -0.02362 0.01466 0.01420 -27.18029 11.63145 26.01903 -0.10898 8.29050 -0.03411 -112.48764 -21.67773 -87.03531 -46.14556 40.81979 -80.68269 29.65718 -9.47249 -57.85699 5.15440 9.33037 16.20046 58.35819 18.49959 88.66879 46.38688 12.55105 75.89535 -7.35816 -14.93759 53.36784 15.92462 -23.72334 14.21872 -10.04180 48.70959 12.94854 -7.95237 0.02642 -0.08718 -3.51151 15.80494 11.26717 -30.94900 0.16199 18.15814 55.08323 44.52483 -88.94406 31.72490 0.06749 0.33706 -1.94607 -17.23001 28.63874 
40.29611 75.93909 -128.58887 3.68737 -18.70717 -25.62228 2.01945 25.92453 5.02408 -0.02431 0.01840 0.01726 -31.54644 13.27520 30.10710 -3.25108 8.90090 1.46413 -113.66412 -22.57820 -85.71093 -47.49578 42.71495 -81.44189 29.06294 -5.72897 -55.66706 2.50053 10.24576 18.24155 58.60754 20.30385 88.72551 46.55953 12.36847 74.64318 -9.83136 -5.34818 44.57822 17.38600 -27.62514 13.24957 -15.46478 59.19391 20.34335 -10.98485 0.03006 -0.09265 -0.81547 12.12106 9.68839 -35.40323 -5.05758 15.06835 74.03862 55.12164 -97.39677 36.77207 0.06447 0.35864 -4.54446 -24.93013 28.33508 
40.30182 71.25428 -130.44728 3.57060 -21.40784 -27.49211 3.09191 28.23105 3.40841 -0.01960 0.02283 0.01888 -35.61477 14.67527 34.23587 -5.70009 9.74454 2.92602 -114.94450 -23.42118 -84.80276 -48.97258 44.29656 -81.88610 28.83787 -8.98158 -58.40257 0.25055 11.36493 20.20716 58.73631 21.63886 88.93465 46.77757 12.10898 73.72522 -7.46587 -7.90045 51.25262 19.01434 -32.55976 12.09038 -26.92291 69.40012 33.47920 -14.44936 0.03797 -0.09439 2.50130 8.40596 8.28698 -39.59786 -10.64392 10.73882 99.43206 62.94151 -114.53062 41.13256 0.07659 0.26158 -5.45894 -31.91901 30.94248 
40.47553 66.26942 -132.17157 3.50424 -23.70088 -29.22542 3.80557 30.24287 2.03965 -0.01857 0.02249 0.01815 -39.23679 15.75815 37.87539 -7.57205 10.37470 4.12795 -116.12289 -24.00345 -84.08109 -50.40797 45.62328 -82.00029 28.27493 -6.75373 -57.45058 -1.61798 12.21584 21.87039 58.88358 22.59728 89.18967 47.07996 11.76313 72.83251 -8.73864 -2.12833 46.07799 20.82477 -37.25795 11.39074 -50.71544 77.05122 58.20962 -18.24654 0.04229 -0.07883 5.24551 5.42586 7.24092 -43.54253 -16.08344 5.22187 131.22151 65.68941 -140.08916 44.77003 0.06242 0.17982 -7.21755 -37.31570 32.12441 
40.76000 60.75314 -133.81316 3.52046 -25.65778 -30.81644 4.20717 32.00001 0.94151 -0.01524 0.02168 0.01734 -42.42341 16.62016 41.03003 -8.78520 10.87887 5.17597 -117.31260 -24.14127 -83.51596 -51.79150 46.65559 -81.84016 28.23660 -8.86129 -59.14521 -2.94485 12.88959 23.18645 58.88544 23.18535 89.44601 47.63671 11.30916 72.12774 -6.63680 -3.39754 49.98024 22.95129 -41.76868 11.27089 -94.30606 79.84084 102.05978 -22.27837 0.03848 -0.05227 7.91857 3.13611 6.51444 -47.27205 -21.16664 -1.37667 160.15550 62.49750 -164.66318 47.71801 0.04927 0.12744 -8.42833 -42.08141 34.14510 
